<?xml version="1.0" encoding="UTF-8"?>
<svg version="1.1" xmlns="http://www.w3.org/2000/svg" width="251" height="201">
<path d="M0 0 C82.83 0 165.66 0 251 0 C251 66.33 251 132.66 251 201 C168.17 201 85.34 201 0 201 C0 134.67 0 68.34 0 0 Z " fill="#FCFCFC" transform="translate(0,0)"/>
<path d="M0 0 C10.77565692 -0.3317806 23.53869006 0.87221603 31.75 8.375 C33.1810715 9.90330459 34.59922187 11.44388266 36 13 C37.27609123 14.04023779 38.56650152 15.06333275 39.875 16.0625 C44.33359921 19.93083549 46.59171734 23.95261194 47.37890625 29.828125 C47.77259327 39.73379832 45.18377334 46.77167474 38.8125 54.3125 C32.13647052 61.31902599 25.23351059 64.97042236 15.56835938 65.39477539 C5.65341403 65.59958127 -1.71541941 63.6413915 -9.375 56.9140625 C-16.11610823 49.85076895 -20.19177207 41.5746777 -20.0625 31.75 C-20.05347656 30.85796875 -20.04445313 29.9659375 -20.03515625 29.046875 C-20.02355469 28.37140625 -20.01195313 27.6959375 -20 27 C-17.15973559 29.70412973 -14.91624264 32.46938713 -12.6875 35.6875 C-10.15391162 38.99856293 -9.42945214 39.8689807 -5.3125 41.125 C-1.4972408 41.13940898 -1.4972408 41.13940898 2 40 C2.309375 38.7934375 2.309375 38.7934375 2.625 37.5625 C3.305625 36.2940625 3.305625 36.2940625 4 35 C6.56105007 34.24752653 9.03830668 33.87043438 11.6875 33.5546875 C14.36449503 33.18961738 14.36449503 33.18961738 16 30 C16.22584687 26.4617323 16.04336284 23.39092922 15 20 C19.46228672 21.13327917 21.1024007 23.17608006 23.44335938 27.0546875 C23.99733398 28.01761719 23.99733398 28.01761719 24.5625 29 C27.64661155 34.70507032 27.64661155 34.70507032 33 38 C30.83094334 30.48289887 26.26054993 21.01215602 19.14355469 16.93701172 C15.94286512 15.60723741 12.7978848 14.78375333 9.41796875 13.9921875 C5.73384267 12.92273833 3.75642994 11.63045051 1 9 C-0.51757269 6.24077693 -1.1307064 4.80602278 -0.625 1.6875 C-0.315625 0.8521875 -0.315625 0.8521875 0 0 Z " fill="#96BC33" transform="translate(37,89)"/>
<path d="M0 0 C2.5625 0.375 2.5625 0.375 4.078125 1.80859375 C6.27473057 5.60640918 6.97635488 9.54450734 7.875 13.8125 C8.08302246 14.75665771 8.29104492 15.70081543 8.50537109 16.67358398 C9.76997345 22.47053236 10.95073404 28.28343951 12.11328125 34.1015625 C12.37776784 35.41481113 12.6423347 36.7280436 12.90698242 38.04125977 C13.420559 40.60496593 13.92488903 43.1705447 14.41918945 45.73803711 C14.77243286 47.50932983 14.77243286 47.50932983 15.1328125 49.31640625 C15.33664551 50.36513916 15.54047852 51.41387207 15.75048828 52.49438477 C16.61699301 55.5683142 17.68110652 57.79780786 19.5625 60.375 C22.77295442 61.46792065 24.54227636 61.87631263 27.62890625 60.35961914 C30.39502993 57.52050053 30.83796955 54.38883218 31.5625 50.62109375 C31.72492187 49.84677505 31.88734375 49.07245636 32.0546875 48.27467346 C32.57245301 45.79013025 33.06797959 43.30176316 33.5625 40.8125 C33.89432697 39.19565366 34.22764686 37.57911295 34.5625 35.96289062 C35.23014471 32.73207186 35.89569457 29.50083888 36.55859375 26.26904297 C36.80585205 25.06619659 36.80585205 25.06619659 37.05810547 23.83905029 C37.40092149 22.16433763 37.74099227 20.48906116 38.07861328 18.81329346 C38.58310532 16.32233433 39.10243935 13.83487913 39.625 11.34765625 C39.77517578 10.58948105 39.92535156 9.83130585 40.08007812 9.05015564 C41.49756525 2.42170182 41.49756525 2.42170182 44.5625 0.375 C47.40746772 -0.05174516 48.92602369 0.01433009 51.4375 1.4375 C54.09791012 6.01931742 50.83454008 14.15389772 49.75 19.265625 C49.48932739 20.50527008 49.48932739 20.50527008 49.22338867 21.7699585 C48.85803163 23.50474822 48.49155917 25.23930337 48.12402344 26.97363281 C47.56139361 29.63022411 47.00310677 32.28770218 46.4453125 34.9453125 C46.08879877 36.63547092 45.73203666 38.32557697 45.375 40.015625 C45.20830811 40.80938538 45.04161621 41.60314575 44.86987305 42.42095947 C44.22237891 45.46712508 43.54822874 48.41781379 42.5625 51.375 C41.91413218 63.08302662 42.95098589 73.9651705 45.5625 85.375 C41.47956804 83.52333018 38.32430829 80.85947567 34.87890625 78.03125 C29.14418673 73.93087719 22.70314032 73.51299623 15.89257812 72.60742188 C15.10947266 72.49076172 14.32636719 72.37410156 13.51953125 72.25390625 C12.80772705 72.1566626 12.09592285 72.05941895 11.36254883 71.95922852 C9.5625 71.375 9.5625 71.375 7.5625 68.375 C7.0793457 66.27563477 7.0793457 66.27563477 6.73828125 63.81640625 C6.60010986 62.88618652 6.46193848 61.9559668 6.31958008 60.99755859 C6.17286865 59.98773926 6.02615723 58.97791992 5.875 57.9375 C3.84845025 44.81596942 0.65995694 32.06882833 -2.74487305 19.24560547 C-4.12576788 13.52246078 -4.73073212 8.23964239 -4.4375 2.375 C-2.4375 0.375 -2.4375 0.375 0 0 Z " fill="#97BC34" transform="translate(31.4375,13.625)"/>
<path d="M0 0 C4.8412101 3.29022225 5.91283046 7.47880467 7.27734375 12.9609375 C7.52742188 13.83363281 7.7775 14.70632812 8.03515625 15.60546875 C9.69952509 21.68681643 11.18825316 27.37265016 8.15234375 33.2109375 C3.63655958 38.67741307 -1.00010892 42.6209707 -8.2734375 43.421875 C-16.28991963 43.51788077 -21.9159724 42.97833185 -27.96875 37.5078125 C-32.58685721 32.59069115 -33.99314629 27.931861 -34.53515625 21.2109375 C-34.29723075 13.97520332 -31.87570914 7.77092729 -26.86328125 2.52734375 C-19.83823954 -3.64465718 -8.17029347 -4.28343658 0 0 Z " fill="#055CAA" transform="translate(162.22265625,102.9140625)"/>
<path d="M0 0 C3.63 0 7.26 0 11 0 C11.98613357 3.0187147 12.964054 6.03969401 13.9375 9.0625 C14.21529297 9.91005859 14.49308594 10.75761719 14.77929688 11.63085938 C16.31866841 16.43444044 17.46212651 20.98211697 18 26 C18.66 26 19.32 26 20 26 C20.18175781 25.04480469 20.36351562 24.08960937 20.55078125 23.10546875 C22.06952062 15.29369649 23.79778621 7.65531461 26 0 C29.96 0 33.92 0 38 0 C38.60544214 2.24966317 39.20935498 4.49972077 39.8125 6.75 C40.14894531 8.00296875 40.48539063 9.2559375 40.83203125 10.546875 C42.26736588 16.0193883 43.62782724 21.51130897 45 27 C47.64 18.09 50.28 9.18 53 0 C56.63 0 60.26 0 64 0 C62.45054558 9.39006715 59.43626049 18.14581727 56.375 27.125 C55.85360505 28.66908131 55.33276723 30.21335085 54.8125 31.7578125 C53.54807788 35.50740901 52.27614875 39.25437918 51 43 C47.37 43 43.74 43 40 43 C37.03524056 34.41780162 34.53937421 25.71623041 32 17 C29.69 25.58 27.38 34.16 25 43 C21.04 43 17.08 43 13 43 C11.1449371 37.1987538 9.29361811 31.39633158 7.44580078 25.59277344 C6.81630277 23.61750813 6.18577216 21.6425716 5.55419922 19.66796875 C4.64801481 16.83418643 3.74551706 13.99925313 2.84375 11.1640625 C2.55939087 10.27756012 2.27503174 9.39105774 1.98205566 8.47769165 C1.72178589 7.65699188 1.46151611 6.83629211 1.19335938 5.99072266 C0.84694397 4.9048436 0.84694397 4.9048436 0.49353027 3.79702759 C0 2 0 2 0 0 Z " fill="#035BAA" transform="translate(167,102)"/>
<path d="M0 0 C1.19085205 0.0146228 1.19085205 0.0146228 2.40576172 0.02954102 C9.99435532 0.25848713 15.91833373 1.31351052 21.5625 6.70703125 C23.54047381 8.88761002 25.39941975 11.10000961 27.1875 13.4375 C25.55909701 16.83969909 23.70464616 19.60571057 21.1875 22.4375 C20.5275 22.4375 19.8675 22.4375 19.1875 22.4375 C18.84138672 21.64085937 18.84138672 21.64085937 18.48828125 20.828125 C16.0293769 15.50211875 13.58104066 12.13427033 8.1875 9.4375 C-4.0603534 8.41743532 -4.0603534 8.41743532 -14.8125 13.4375 C-22.64838014 21.77826932 -22.33281518 31.53047453 -22.12109375 42.33203125 C-21.78576447 50.00842815 -20.11800546 55.6096645 -14.4375 60.9375 C-8.09765259 65.67232275 -1.54060861 66.28396424 6.1875 65.4375 C12.74753258 63.7609222 15.73512146 59.90684759 19.15625 54.265625 C19.4965625 53.66234375 19.836875 53.0590625 20.1875 52.4375 C22.83502004 55.01534846 25.13182065 57.35398098 27.1875 60.4375 C22.89746559 67.85098052 17.38130375 71.92975513 9.1875 74.4375 C-0.38283196 75.89604158 -11.06501031 75.29072058 -19.2421875 69.80859375 C-27.21204207 63.34125275 -31.74132428 54.62854675 -32.8125 44.4375 C-33.5770883 31.26200515 -32.70076181 19.8872132 -23.8125 9.4375 C-16.72839891 2.84295061 -9.59593597 -0.13115869 0 0 Z " fill="#97BC34" transform="translate(121.8125,13.5625)"/>
<path d="M0 0 C3.63 0 7.26 0 11 0 C11.33 1.65 11.66 3.3 12 5 C12.44988281 4.6390625 12.89976563 4.278125 13.36328125 3.90625 C18.36870721 0.29512105 22.27737788 -0.7203629 28.44140625 -0.4296875 C32.06407829 0.17870017 34.28729933 1.56552504 37 4 C39.62101473 7.93152209 38.76431035 9.41882692 38 14 C37.8858256 16.70035729 37.81506797 19.36356087 37.8125 22.0625 C37.79413086 23.0844043 37.79413086 23.0844043 37.77539062 24.12695312 C37.76277334 28.50515083 38.53171969 31.90608903 40 36 C40.22663986 38.71061275 40.0940868 41.27148292 40 44 C36.37 44 32.74 44 29 44 C28.97494385 43.1121582 28.9498877 42.22431641 28.92407227 41.30957031 C28.82878203 38.00703963 28.72955793 34.70467541 28.62768555 31.40234375 C28.58444682 29.97465612 28.54276415 28.54692046 28.50268555 27.11914062 C28.44471398 25.06365504 28.38109825 23.00840872 28.31640625 20.953125 C28.27974854 19.71723633 28.24309082 18.48134766 28.20532227 17.20800781 C28.04020181 14.62812342 27.7535613 12.45644894 27 10 C21.77186398 9.00806813 21.77186398 9.00806813 16.625 9.6875 C14.5733614 11.34459272 13.96947801 12.53251715 13 15 C12.63305379 18.29220552 12.63305379 18.29220552 12.5859375 21.953125 C12.56657135 22.61334656 12.5472052 23.27356812 12.5272522 23.95379639 C12.46770651 26.05240153 12.42117278 28.15106228 12.375 30.25 C12.33679706 31.6771066 12.29774398 33.10419072 12.2578125 34.53125 C12.1620267 38.02062691 12.07790358 41.51017286 12 45 C8.04 45 4.08 45 0 45 C0 30.15 0 15.3 0 0 Z " fill="#095EAB" transform="translate(89,101)"/>
<path d="M0 0 C8.58 0 17.16 0 26 0 C26.33 2.64 26.66 5.28 27 8 C28.32 5.69 29.64 3.38 31 1 C31.33 1 31.66 1 32 1 C32 7.27 32 13.54 32 20 C31.34 20 30.68 20 30 20 C29.01 18.02 28.02 16.04 27 14 C26.67 16.31 26.34 18.62 26 21 C17.42 21 8.84 21 0 21 C0 14.07 0 7.14 0 0 Z " fill="#095DAB" transform="translate(105,40)"/>
<path d="M0 0 C2.97361628 1.78152067 5.42653612 3.85307225 7 7 C8.04817082 17.84108101 8.04817082 17.84108101 5.953125 22.15625 C3.11370073 25.56355913 1.05564552 26.9004108 -3.3125 27.3125 C-7.63730212 26.94599135 -9.04850506 26.1201518 -12 23 C-14.76686692 18.52031071 -14.67716945 13.09916754 -14 8 C-10.63260726 1.4974485 -7.38627494 -0.8763377 0 0 Z " fill="#FBFCFD" transform="translate(154,110)"/>
<path d="M0 0 C4.1621401 1.61861004 5.55499627 4.84575527 7.734375 8.6015625 C8.36569336 9.63893555 8.36569336 9.63893555 9.00976562 10.69726562 C16.76393222 23.59683269 16.76393222 23.59683269 16.484375 27.9765625 C15.671875 30.0390625 15.671875 30.0390625 14.671875 31.0390625 C12.453125 31.54296875 12.453125 31.54296875 9.671875 31.0390625 C7.47657061 28.9439031 5.86098673 26.48657307 4.171875 23.9765625 C3.48158203 22.99139648 3.48158203 22.99139648 2.77734375 21.98632812 C1.85426998 20.66672266 0.93941412 19.34132973 0.03295898 18.01025391 C-1.31634125 16.05612832 -2.72226802 14.15334848 -4.13671875 12.24609375 C-6.328125 9.0390625 -6.328125 9.0390625 -6.890625 5.7890625 C-6.328125 3.0390625 -6.328125 3.0390625 -4.640625 1.1015625 C-2.328125 0.0390625 -2.328125 0.0390625 0 0 Z " fill="#97BC34" transform="translate(20.328125,94.9609375)"/>
<path d="M0 0 C0.66 0.66 1.32 1.32 2 2 C1.64644564 4.26274788 1.02455574 5.95088852 0 8 C-0.37525563 11.90265858 -0.26824772 14.41473224 1.375 18 C4.4610683 21.52693519 7.81323102 23.79589973 11.7578125 26.2890625 C14.11266254 28.08596897 14.99802365 29.24731771 16 32 C16.25 34.625 16.25 34.625 16 37 C14 39 14 39 11.60546875 39.4609375 C9 39 9 39 7.11328125 36.7890625 C6.51902344 35.74492188 5.92476562 34.70078125 5.3125 33.625 C4.98507813 33.05716797 4.65765625 32.48933594 4.3203125 31.90429688 C3.59776158 30.64319035 2.88420655 29.37690044 2.17822266 28.10644531 C0.90058258 25.82225994 -0.41696963 23.56386767 -1.73828125 21.3046875 C-2.66041928 19.70402564 -3.58100829 18.10247033 -4.5 16.5 C-4.94561279 15.73510254 -5.39122559 14.97020508 -5.8503418 14.18212891 C-9.72386738 7.2869035 -9.72386738 7.2869035 -9 3 C-6.73157826 -0.65467947 -4.03373275 -0.4291205 0 0 Z " fill="#96BC33" transform="translate(33,81)"/>
<path d="M0 0 C0.66 0 1.32 0 2 0 C2 0.99 2 1.98 2 3 C4.97 3 7.94 3 11 3 C11.33 6.63 11.66 10.26 12 14 C3.75 14 3.75 14 0 13 C-0.19551338 11.39679026 -0.38111983 9.79237014 -0.5625 8.1875 C-0.71912109 6.84751953 -0.71912109 6.84751953 -0.87890625 5.48046875 C-1 3 -1 3 0 0 Z " fill="#F1F1F1" transform="translate(160,162)"/>
<path d="M0 0 C0.66 0 1.32 0 2 0 C2 0.99 2 1.98 2 3 C4.97 3 7.94 3 11 3 C11.33 6.63 11.66 10.26 12 14 C3.75 14 3.75 14 0 13 C-0.19551338 11.39679026 -0.38111983 9.79237014 -0.5625 8.1875 C-0.71912109 6.84751953 -0.71912109 6.84751953 -0.87890625 5.48046875 C-1 3 -1 3 0 0 Z " fill="#EDEDED" transform="translate(28,162)"/>
<path d="M0 0 C0.33 0.99 0.66 1.98 1 3 C3.97 3 6.94 3 10 3 C10.33 4.98 10.66 6.96 11 9 C9.35 9 7.7 9 6 9 C6 10.32 6 11.64 6 13 C7.32 12.01 8.64 11.02 10 10 C9.67 11.32 9.34 12.64 9 14 C6.03 14 3.06 14 0 14 C0 10.7 0 7.4 0 4 C-0.66 3.67 -1.32 3.34 -2 3 C-1.34 3 -0.68 3 0 3 C0 2.01 0 1.02 0 0 Z " fill="#666565" transform="translate(113,162)"/>
<path d="M0 0 C0.66 0 1.32 0 2 0 C2 4.95 2 9.9 2 15 C0.02 15 -1.96 15 -4 15 C-5 14 -5 14 -5.09765625 11.93359375 C-5.08605469 11.10988281 -5.07445313 10.28617188 -5.0625 9.4375 C-5.05347656 8.61121094 -5.04445313 7.78492188 -5.03515625 6.93359375 C-5.02355469 6.29550781 -5.01195313 5.65742188 -5 5 C-3.35 4.67 -1.7 4.34 0 4 C0 2.68 0 1.36 0 0 Z " fill="#3D3B3C" transform="translate(131,161)"/>
<path d="M0 0 C0.66 0 1.32 0 2 0 C2 4.95 2 9.9 2 15 C0.02 15 -1.96 15 -4 15 C-5.60725635 11.78548731 -5.05748185 8.56387464 -5 5 C-3.35 4.67 -1.7 4.34 0 4 C0 2.68 0 1.36 0 0 Z " fill="#302D2E" transform="translate(230,161)"/>
<path d="M0 0 C4.55555556 0.55555556 4.55555556 0.55555556 6 2 C6.1875 5.4375 6.1875 5.4375 6 9 C5.34 9.66 4.68 10.32 4 11 C1.4375 10.75 1.4375 10.75 -1 10 C-2.38125018 7.23749964 -2.19079306 5.05268901 -2 2 C-1.34 1.34 -0.68 0.68 0 0 Z " fill="#8D8C8C" transform="translate(68,165)"/>
<path d="M0 0 C0.99 0 1.98 0 3 0 C3.508783 1.55966218 4.00663469 3.12289241 4.5 4.6875 C4.7784375 5.55761719 5.056875 6.42773438 5.34375 7.32421875 C5.99850805 9.99391677 6.11831495 12.26396684 6 15 C5.34 13.68 4.68 12.36 4 11 C2.35 11 0.7 11 -1 11 C-1.33 12.32 -1.66 13.64 -2 15 C-3.31534494 11.34142468 -2.65468309 8.91973519 -1.5625 5.25 C-1.27503906 4.26515625 -0.98757812 3.2803125 -0.69140625 2.265625 C-0.46324219 1.51796875 -0.23507813 0.7703125 0 0 Z " fill="#676666" transform="translate(190,161)"/>
<path d="M0 0 C1.7544116 2.6316174 2.58158544 4.42768044 3.5078125 7.37890625 C3.77207031 8.21744141 4.03632813 9.05597656 4.30859375 9.91992188 C4.57800781 10.79197266 4.84742188 11.66402344 5.125 12.5625 C5.40214844 13.43841797 5.67929688 14.31433594 5.96484375 15.21679688 C8 21.72829433 8 21.72829433 8 24 C7.34 24 6.68 24 6 24 C5.67 24.99 5.34 25.98 5 27 C3.95826955 23.63109491 2.94543589 20.25415537 1.9375 16.875 C1.64294922 15.92367187 1.34839844 14.97234375 1.04492188 13.9921875 C-0.43252895 8.98623649 -1.52502852 5.17638252 0 0 Z " fill="#E2EAF3" transform="translate(167,104)"/>
<path d="M0 0 C6.6 0 13.2 0 20 0 C20 0.99 20 1.98 20 3 C13.4 3 6.8 3 0 3 C0 2.01 0 1.02 0 0 Z " fill="#E1E8F1" transform="translate(108,42)"/>
<path d="M0 0 C2.625 -0.1875 2.625 -0.1875 5 0 C5.66 1.32 6.32 2.64 7 4 C6.34 4 5.68 4 5 4 C4.67 3.34 4.34 2.68 4 2 C3.01 2.33 2.02 2.66 1 3 C1 5.97 1 8.94 1 12 C1.99 12.33 2.98 12.66 4 13 C4.33 11.68 4.66 10.36 5 9 C5.66 9 6.32 9 7 9 C6.67 10.65 6.34 12.3 6 14 C4.35 14.33 2.7 14.66 1 15 C-1.58075402 12.41924598 -2.24052758 10.49032019 -2.3125 6.9375 C-2 3 -2 3 0 0 Z " fill="#353434" transform="translate(57,161)"/>
<path d="M0 0 C2.625 0.375 2.625 0.375 5 1 C5 2.32 5 3.64 5 5 C3.35 5 1.7 5 0 5 C0.34786708 6.97536745 0.34786708 6.97536745 1 9 C1.66 9.33 2.32 9.66 3 10 C3 9.01 3 8.02 3 7 C3.66 7 4.32 7 5 7 C4.67 8.32 4.34 9.64 4 11 C1.5625 10.625 1.5625 10.625 -1 10 C-2.38125018 7.23749964 -2.19079306 5.05268901 -2 2 C-1.34 1.34 -0.68 0.68 0 0 Z " fill="#5D5B5B" transform="translate(96,165)"/>
<path d="M0 0 C2.625 0.375 2.625 0.375 5 1 C5 2.32 5 3.64 5 5 C3.35 5 1.7 5 0 5 C0.34786708 6.97536745 0.34786708 6.97536745 1 9 C1.66 9.33 2.32 9.66 3 10 C3 9.01 3 8.02 3 7 C3.66 7 4.32 7 5 7 C4.67 8.32 4.34 9.64 4 11 C1.5625 10.625 1.5625 10.625 -1 10 C-2.38125018 7.23749964 -2.19079306 5.05268901 -2 2 C-1.34 1.34 -0.68 0.68 0 0 Z " fill="#5C5A5B" transform="translate(209,165)"/>
<path d="M0 0 C0.33 0.99 0.66 1.98 1 3 C1.99 3 2.98 3 4 3 C4.33 6.3 4.66 9.6 5 13 C3.35 13.33 1.7 13.66 0 14 C0 10.7 0 7.4 0 4 C-0.66 3.67 -1.32 3.34 -2 3 C-1.34 3 -0.68 3 0 3 C0 2.01 0 1.02 0 0 Z " fill="#F0F0F0" transform="translate(113,162)"/>
<path d="M0 0 C1.65 0 3.3 0 5 0 C5.33 3.63 5.66 7.26 6 11 C4.02 11 2.04 11 0 11 C-0.33 9.35 -0.66 7.7 -1 6 C0.65 5.34 2.3 4.68 4 4 C4 3.01 4 2.02 4 1 C2.35 1.66 0.7 2.32 -1 3 C-0.67 2.01 -0.34 1.02 0 0 Z " fill="#595959" transform="translate(166,165)"/>
<path d="M0 0 C1.65 0 3.3 0 5 0 C5.33 3.63 5.66 7.26 6 11 C4.02 11 2.04 11 0 11 C-0.33 9.35 -0.66 7.7 -1 6 C0.65 5.34 2.3 4.68 4 4 C4 3.01 4 2.02 4 1 C2.35 1.66 0.7 2.32 -1 3 C-0.67 2.01 -0.34 1.02 0 0 Z " fill="#595858" transform="translate(34,165)"/>
<path d="M0 0 C1.65 0 3.3 0 5 0 C5 3.3 5 6.6 5 10 C3.35 10.33 1.7 10.66 0 11 C-0.33 9.35 -0.66 7.7 -1 6 C0.65 5.34 2.3 4.68 4 4 C4 3.01 4 2.02 4 1 C3.01 1 2.02 1 1 1 C1 1.66 1 2.32 1 3 C0.34 3 -0.32 3 -1 3 C-0.67 2.01 -0.34 1.02 0 0 Z " fill="#5F5E5E" transform="translate(217,165)"/>
<path d="M0 0 C1.99954746 -0.04254356 4.00041636 -0.04080783 6 0 C7 1 7 1 7.09765625 3.28515625 C7.08605469 4.20167969 7.07445313 5.11820313 7.0625 6.0625 C7.05347656 6.98160156 7.04445313 7.90070313 7.03515625 8.84765625 C7.02355469 9.55792969 7.01195313 10.26820313 7 11 C6.34 11 5.68 11 5 11 C5 7.7 5 4.4 5 1 C4.01 1.495 4.01 1.495 3 2 C2.53348793 4.12576782 2.53348793 4.12576782 2.375 6.5625 C2.30023438 7.38878906 2.22546875 8.21507812 2.1484375 9.06640625 C2.09945312 9.70449219 2.05046875 10.34257812 2 11 C1.34 11 0.68 11 0 11 C0 7.37 0 3.74 0 0 Z " fill="#4F4E4E" transform="translate(85,165)"/>
<path d="M0 0 C0.66 0 1.32 0 2 0 C2 1.32 2 2.64 2 4 C3.65 4 5.3 4 7 4 C7 7.63 7 11.26 7 15 C6.67 15 6.34 15 6 15 C5.67 12.03 5.34 9.06 5 6 C4.34 6 3.68 6 3 6 C2.67 8.97 2.34 11.94 2 15 C1.34 15 0.68 15 0 15 C0 10.05 0 5.1 0 0 Z " fill="#3F3D3E" transform="translate(198,161)"/>
<path d="M0 0 C0.66 0 1.32 0 2 0 C2.66 1.98 3.32 3.96 4 6 C4.66 5.34 5.32 4.68 6 4 C5.25 11.625 5.25 11.625 3 15 C2.01 15 1.02 15 0 15 C0 14.34 0 13.68 0 13 C0.99 13 1.98 13 3 13 C2.01 8.71 1.02 4.42 0 0 Z " fill="#454444" transform="translate(41,165)"/>
<path d="M0 0 C2.0625 0.4375 2.0625 0.4375 4 1 C4 2.98 4 4.96 4 7 C2.0625 7.5625 2.0625 7.5625 0 8 C-1 7 -1 7 -1.125 4 C-1 1 -1 1 0 0 Z " fill="#DDDDDD" transform="translate(227,166)"/>
<path d="M0 0 C0.99 0 1.98 0 3 0 C3 2.64 3 5.28 3 8 C1.68 8 0.36 8 -1 8 C-1.04241723 5.66705225 -1.04092937 3.33297433 -1 1 C-0.67 0.67 -0.34 0.34 0 0 Z " fill="#EFEFEF" transform="translate(128,166)"/>
<path d="M0 0 C0.66 0 1.32 0 2 0 C2 0.99 2 1.98 2 3 C2.66 3.33 3.32 3.66 4 4 C3.34 4 2.68 4 2 4 C2 6.97 2 9.94 2 13 C2.66 13.33 3.32 13.66 4 14 C2.68 13.67 1.36 13.34 0 13 C-0.19551338 11.39679026 -0.38111983 9.79237014 -0.5625 8.1875 C-0.71912109 6.84751953 -0.71912109 6.84751953 -0.87890625 5.48046875 C-1 3 -1 3 0 0 Z " fill="#464445" transform="translate(160,162)"/>
<path d="M0 0 C0.66 0 1.32 0 2 0 C2 0.99 2 1.98 2 3 C2.66 3.33 3.32 3.66 4 4 C3.34 4 2.68 4 2 4 C2.33 7.3 2.66 10.6 3 14 C2.01 13.67 1.02 13.34 0 13 C-0.19551338 11.39679026 -0.38111983 9.79237014 -0.5625 8.1875 C-0.71912109 6.84751953 -0.71912109 6.84751953 -0.87890625 5.48046875 C-1 3 -1 3 0 0 Z " fill="#4A4849" transform="translate(28,162)"/>
<path d="M0 0 C0.66 0 1.32 0 2 0 C2.33 1.98 2.66 3.96 3 6 C3.66 6 4.32 6 5 6 C5.33 5.34 5.66 4.68 6 4 C5.54177532 7.46941546 5.10868317 10.67395049 4 14 C3.01 13.67 2.02 13.34 1 13 C1.66 13 2.32 13 3 13 C2.01 8.71 1.02 4.42 0 0 Z " fill="#373535" transform="translate(173,165)"/>
<path d="M0 0 C2.0625 0.4375 2.0625 0.4375 4 1 C4 2.32 4 3.64 4 5 C2.68 5.33 1.36 5.66 0 6 C-0.38218767 4.34385343 -0.71395102 2.67542976 -1 1 C-0.67 0.67 -0.34 0.34 0 0 Z " fill="#1E1B1C" transform="translate(140,166)"/>
<path d="M0 0 C7.26 0 14.52 0 22 0 C21.67 0.99 21.34 1.98 21 3 C20.34 2.67 19.68 2.34 19 2 C17.5534758 1.84932786 16.1012066 1.75138964 14.6484375 1.68359375 C13.37226562 1.62075195 13.37226562 1.62075195 12.0703125 1.55664062 C11.18085937 1.51732422 10.29140625 1.47800781 9.375 1.4375 C8.4778125 1.39431641 7.580625 1.35113281 6.65625 1.30664062 C4.43765717 1.20043139 2.2189512 1.09838806 0 1 C0 0.67 0 0.34 0 0 Z " fill="#004FA5" transform="translate(109,41)"/>
<path d="M0 0 C0.33 0.99 0.66 1.98 1 3 C1.66 3.33 2.32 3.66 3 4 C2.34 4 1.68 4 1 4 C1 6.97 1 9.94 1 13 C1.66 13.33 2.32 13.66 3 14 C2.01 14 1.02 14 0 14 C0 10.7 0 7.4 0 4 C-0.66 3.67 -1.32 3.34 -2 3 C-1.34 3 -0.68 3 0 3 C0 2.01 0 1.02 0 0 Z " fill="#161213" transform="translate(113,162)"/>
<path d="M0 0 C1.09658936 3.28976808 0.79953138 4.71303767 0 8 C-0.99 7.67 -1.98 7.34 -3 7 C-2.625 4.0625 -2.625 4.0625 -2 1 C-1.34 0.67 -0.68 0.34 0 0 Z " fill="#E0E8F2" transform="translate(129,112)"/>
<path d="M0 0 C1.65 0 3.3 0 5 0 C4.34 1.65 3.68 3.3 3 5 C2.01 4.67 1.02 4.34 0 4 C0 2.68 0 1.36 0 0 Z " fill="#E5E5E5" transform="translate(209,170)"/>
</svg>
